<?xml version="1.0" encoding="iso-8859-1"?>
<!-- Generator: Adobe Illustrator 19.0.0, SVG Export Plug-In . SVG Version: 6.00 Build 0)  -->
<svg xmlns="http://www.w3.org/2000/svg" xmlns:xlink="http://www.w3.org/1999/xlink" version="1.1" id="Layer_1" x="0px" y="0px" viewBox="0 0 512 512" style="enable-background:new 0 0 512 512;" xml:space="preserve" width="512" height="512">
<g>
	<rect x="91" y="62" style="fill:#895D3C;" width="421" height="30"/>
	<rect x="241" y="62" style="fill:#714C2F;" width="271" height="30"/>
	<path style="fill:#F4D7AF;" d="M191.799,174.8c-6.299,26.699-23.699,49.199-48.9,62.999l-14.399-26.4   c17.401-9.6,29.7-25.199,34.2-43.801c4.499-17.999,0.899-36.899-9.3-52.2C137.8,92,133.299,60.899,141.099,33.9   c1.8-6.601,4.501-12.9,7.8-18.9h36c-7.2,7.8-12.301,16.8-15,26.999c-5.4,18.6-2.1,40.701,8.699,56.6   C193.299,121.099,198.1,148.7,191.799,174.8z"/>
	<path style="fill:#F4D7AF;" d="M251.201,177.8c-2.401,8.401-5.7,16.199-10.201,23.401c-10.201,17.098-25.8,30.899-45,39.899   L183.4,214.1c19.499-9.3,33.3-24.901,38.699-44.401c5.4-18.3,2.1-38.399-8.699-54.3c-16.201-24.3-20.4-56.3-11.7-84.2   c1.8-5.7,4.2-11.1,7.2-16.199H245.2c-1.5,1.5-3.001,3.3-4.2,5.099c-4.799,6-8.101,12.599-10.499,20.099   c-6,19.2-3.301,41.6,8.099,58.4c0.901,1.5,1.8,3.001,2.401,4.501C254.5,125.6,258.1,152.599,251.201,177.8z"/>
	<path style="fill:#FAECD8;" d="M245.2,15c-1.5,1.5-3.001,3.3-4.2,5.099V15H245.2z"/>
	<rect x="91" style="fill:#895D3C;" width="421" height="30"/>
	<path style="fill:#F4D7AF;" d="M311.201,177.499c-7.8,27.9-27.001,50.4-54.3,63.3L243.999,213.8   c19.2-9.3,33.001-24.901,38.401-44.101c4.799-18.6,1.8-38.399-9-54.3c-16.5-25.199-20.4-58.999-10.501-87.199   c1.501-4.501,3.6-9,5.7-13.2H305.2c-6.301,6.599-11.1,14.399-14.101,23.099c-6.899,19.501-4.199,43.4,7.5,60.5   C313.9,122,318.701,150.5,311.201,177.499z"/>
	<rect x="241" style="fill:#714C2F;" width="271" height="30"/>
	<polygon style="fill:#FAECD8;" points="422.5,182 346,317 241,347 136,317 59.5,182  "/>
	<polygon style="fill:#F4D7AF;" points="422.5,182 346,317 241,347 241,182  "/>
	<polygon style="fill:#FDBF00;" points="316,414.5 286,512 196,512 166,414.5 196,317 286,317  "/>
	<polygon style="fill:#FF9100;" points="316,414.5 286,512 241,512 241,317 286,317  "/>
	<path style="fill:#F4D7AF;" d="M59.471,182L0,252.327l23.789,18.252L74.266,212C59.005,180.994,58.02,178.993,59.5,182H59.471z"/>
	<path style="fill:#F4D7AF;" d="M422.567,182H422.5c-1.25,3.035-16.51,40.093-12.354,30l55.605,55.605l21.211-21.211L422.567,182z"/>
	<polygon style="fill:#FF637B;" points="166,317 59.433,182 92.421,512 196,512 196,317  "/>
	<polygon style="fill:#E63950;" points="422.567,182 316,317 286,317 286,512 389.579,512  "/>
</g>















</svg>
